<svg version="1.1" id="Layer_1" xmlns="http://www.w3.org/2000/svg" xmlns:xlink="http://www.w3.org/1999/xlink" x="0px" y="0px"
	 width="100%" viewBox="0 0 512 512" enable-background="new 0 0 512 512" xml:space="preserve">
<path fill="#FF0037" opacity="1.000000" stroke="none" 
	d="
M0.999999,279.000000 
	C1.000000,264.645782 1.000000,250.291550 1.391188,235.288422 
	C2.851618,226.552612 3.810340,218.449265 5.011194,210.381943 
	C8.374290,187.788712 15.815855,166.444687 25.618919,145.940445 
	C35.409508,125.462288 47.793049,106.664139 62.816833,89.533928 
	C76.355415,74.097137 91.149612,60.085068 107.764755,48.109528 
	C126.100822,34.893620 145.959656,24.253492 167.184830,16.482801 
	C185.154373,9.904019 203.612335,4.949888 222.755585,2.961277 
	C226.860657,2.534839 230.919739,1.665377 235.000000,1.000000 
	C249.354233,1.000000 263.708466,1.000000 278.711548,1.391181 
	C283.276886,2.186632 287.256927,2.276029 291.098328,3.051771 
	C304.902496,5.839394 318.819824,8.267032 332.395447,11.936606 
	C350.422516,16.809439 367.337708,24.559967 383.604950,33.829205 
	C400.104889,43.231030 415.475006,54.142212 429.356293,67.024414 
	C437.242493,74.343063 444.478699,82.383987 451.765564,90.321823 
	C464.716125,104.429237 475.069641,120.388962 483.994263,137.253860 
	C496.799408,161.451828 505.564301,187.056931 509.499329,214.059509 
	C507.550476,212.565933 505.831543,211.258453 504.317535,209.745895 
	C468.797211,174.260010 433.310211,138.740768 397.759491,103.285393 
	C396.204315,101.734390 394.102905,100.731148 392.272278,99.408325 
	C392.288635,99.343910 392.418793,99.297569 392.491516,99.046844 
	C392.407867,98.492783 392.251526,98.189445 391.965210,97.712143 
	C391.720703,97.232079 391.500549,97.066078 390.759094,96.969009 
	C381.396088,98.993950 372.448761,101.090050 363.087708,103.205521 
	C351.076508,106.108635 339.478973,108.992371 327.479614,111.892906 
	C318.231201,114.001976 309.384552,116.094246 300.122681,118.212418 
	C288.129944,121.083611 276.552490,123.928902 264.581116,126.804680 
	C262.438629,127.280411 260.690033,127.725655 258.550171,128.124512 
	C251.189423,129.849136 244.219986,131.620148 236.829315,133.510025 
	C224.953049,136.425064 213.498001,139.221252 201.630707,141.988007 
	C192.221420,144.110657 183.224396,146.262726 173.807938,148.533401 
	C161.934219,151.446976 150.479965,154.241959 138.615295,157.004791 
	C129.159439,159.143448 120.113983,161.314255 110.654800,163.594788 
	C103.496964,165.287216 96.752853,166.869934 89.344086,168.608643 
	C93.335007,185.319061 97.245178,201.691391 101.164597,218.325928 
	C101.431435,219.030869 101.689018,219.473602 101.684875,220.248444 
	C101.435211,237.859695 101.447281,255.138809 101.473099,272.551239 
	C101.486839,272.684540 101.655853,272.895966 101.659851,273.246368 
	C101.778831,274.047729 101.893814,274.498718 101.936401,275.416901 
	C101.848198,317.764648 101.825920,359.645172 101.827469,401.525696 
	C101.827606,405.341736 101.980553,409.157776 102.212021,413.268677 
	C103.614418,414.898041 104.832031,416.267761 106.125404,417.561768 
	C133.813858,445.262360 161.516022,472.949280 189.190811,500.663544 
	C190.586334,502.061066 191.759308,503.680817 192.625473,505.110596 
	C176.000488,501.549622 160.706604,495.434784 145.836258,488.310059 
	C125.369675,478.504028 106.543304,466.184692 89.478264,451.102142 
	C73.755844,437.206329 59.555828,422.049561 47.356750,404.946045 
	C34.482670,386.896210 24.166641,367.484863 16.485720,346.778168 
	C9.834901,328.848511 4.938326,310.374847 2.960876,291.238342 
	C2.536879,287.135162 1.665360,283.078247 0.999999,279.000000 
z"/>
<path fill="#D30F0F" opacity="1.000000" stroke="none" 
	d="
M392.255920,99.472748 
	C394.102905,100.731148 396.204315,101.734390 397.759491,103.285393 
	C433.310211,138.740768 468.797211,174.260010 504.317535,209.745895 
	C505.831543,211.258453 507.550476,212.565933 509.572144,214.462585 
	C510.308472,217.315384 510.612732,219.680008 510.992279,222.032486 
	C511.636536,226.025696 512.328247,230.011230 513.000000,234.000000 
	C513.000000,248.687561 513.000000,263.375122 512.605591,278.706024 
	C511.140717,287.441193 510.179504,295.549255 508.979126,303.621765 
	C505.619324,326.216248 498.162537,347.554230 488.361786,368.058807 
	C478.575684,388.532745 466.257477,407.378876 451.159393,424.436188 
	C437.245178,440.155945 422.107483,454.397034 404.980011,466.600525 
	C386.921478,479.467438 367.517731,489.785950 346.815094,497.477905 
	C328.874756,504.143524 310.386475,509.032715 291.239960,511.029816 
	C287.136108,511.457825 283.078766,512.331543 279.000000,513.000000 
	C264.645782,513.000000 250.291550,513.000000 235.294830,512.605042 
	C220.495438,511.562256 206.652557,509.050934 193.035889,505.197113 
	C191.759308,503.680817 190.586334,502.061066 189.190811,500.663544 
	C161.516022,472.949280 133.813858,445.262360 106.125404,417.561768 
	C104.832031,416.267761 103.614418,414.898041 102.674774,413.272919 
	C128.483704,412.986694 153.979401,413.013733 179.475067,412.989258 
	C205.301422,412.964478 231.127762,412.888763 257.424377,412.896118 
	C309.240997,412.956909 360.587372,412.956909 412.203796,412.956909 
	C412.203796,366.175385 412.203796,320.242432 412.277527,273.993042 
	C412.406036,273.466125 412.460785,273.255615 412.648682,272.656128 
	C412.676910,255.186615 412.571991,238.106155 412.127991,220.708893 
	C410.974609,220.267838 410.160431,220.035568 409.346069,220.034973 
	C380.620422,220.013931 351.894745,220.003326 323.169189,220.050919 
	C321.936462,220.052963 320.704620,220.620514 319.486633,220.791931 
	C319.402435,220.476883 319.251862,220.406158 318.625427,220.456879 
	C317.919556,220.480988 317.637360,220.495331 316.956726,220.323669 
	C305.241089,220.141586 293.923889,220.145493 282.351349,220.115814 
	C281.754639,220.107529 281.413239,220.132812 280.596924,220.106827 
	C272.431122,220.083267 264.740265,220.110977 256.685669,220.092102 
	C255.839844,220.120178 255.357727,220.194855 254.626709,220.267014 
	C254.046524,220.289841 253.717590,220.333115 252.898438,220.282776 
	C239.242859,220.109421 226.079727,219.983246 212.916901,220.010117 
	C205.102539,220.026062 197.288696,220.283157 189.304382,220.487808 
	C189.134155,220.543793 188.941193,220.854813 188.749908,220.826385 
	C188.558624,220.797943 188.181793,220.710770 187.812988,220.496185 
	C175.874481,220.289490 164.304810,220.297348 152.466003,220.276581 
	C151.836258,220.253677 151.475647,220.259384 150.643036,220.171112 
	C138.143311,220.063858 126.115250,220.089874 114.088181,219.992767 
	C112.384415,219.979004 110.685486,219.366043 109.386093,219.012085 
	C116.492302,217.279846 123.196732,215.565948 130.299530,213.859634 
	C142.170380,211.134796 153.642838,208.402374 165.482956,205.703964 
	C174.868820,203.440781 183.887009,201.143600 193.303162,198.851685 
	C205.174454,196.126541 216.647812,193.396133 228.486755,190.700317 
	C237.863419,188.440247 246.874496,186.145599 256.290192,183.888306 
	C268.230988,181.209122 279.767151,178.492554 291.656006,175.791443 
	C300.968292,173.502243 309.927979,171.197601 319.292389,168.928467 
	C331.234741,166.232742 342.772369,163.501495 354.662109,160.783752 
	C363.977631,158.493484 372.941040,156.189713 382.311584,153.924408 
	C389.815613,152.234726 396.912476,150.506592 404.000275,148.780670 
	C399.963776,131.833710 396.109863,115.653229 392.255920,99.472748 
z"/>
<path fill="#FFFFFF" opacity="1.000000" stroke="none" 
	d="
M234.531342,1.000000 
	C230.919739,1.665377 226.860657,2.534839 222.755585,2.961277 
	C203.612335,4.949888 185.154373,9.904019 167.184830,16.482801 
	C145.959656,24.253492 126.100822,34.893620 107.764755,48.109528 
	C91.149612,60.085068 76.355415,74.097137 62.816833,89.533928 
	C47.793049,106.664139 35.409508,125.462288 25.618919,145.940445 
	C15.815855,166.444687 8.374290,187.788712 5.011194,210.381943 
	C3.810340,218.449265 2.851618,226.552612 1.391188,234.819763 
	C1.000000,157.072952 1.000000,79.145912 1.000000,1.000000 
	C78.687424,1.000000 156.375061,1.000000 234.531342,1.000000 
z"/>
<path fill="#FFFFFF" opacity="1.000000" stroke="none" 
	d="
M279.468658,513.000000 
	C283.078766,512.331543 287.136108,511.457825 291.239960,511.029816 
	C310.386475,509.032715 328.874756,504.143524 346.815094,497.477905 
	C367.517731,489.785950 386.921478,479.467438 404.980011,466.600525 
	C422.107483,454.397034 437.245178,440.155945 451.159393,424.436188 
	C466.257477,407.378876 478.575684,388.532745 488.361786,368.058807 
	C498.162537,347.554230 505.619324,326.216248 508.979126,303.621765 
	C510.179504,295.549255 511.140717,287.441193 512.605591,279.174683 
	C513.000000,356.927032 513.000000,434.854095 513.000000,513.000000 
	C435.312561,513.000000 357.624939,513.000000 279.468658,513.000000 
z"/>
<path fill="#FFFFFF" opacity="1.000000" stroke="none" 
	d="
M192.625473,505.110596 
	C206.652557,509.050934 220.495438,511.562256 234.826172,512.605042 
	C157.072968,513.000000 79.145927,513.000000 1.000000,513.000000 
	C1.000000,435.312561 1.000000,357.624939 0.999999,279.468658 
	C1.665360,283.078247 2.536879,287.135162 2.960876,291.238342 
	C4.938326,310.374847 9.834901,328.848511 16.485720,346.778168 
	C24.166641,367.484863 34.482670,386.896210 47.356750,404.946045 
	C59.555828,422.049561 73.755844,437.206329 89.478264,451.102142 
	C106.543304,466.184692 125.369675,478.504028 145.836258,488.310059 
	C160.706604,495.434784 176.000488,501.549622 192.625473,505.110596 
z"/>
<path fill="#FFFFFF" opacity="1.000000" stroke="none" 
	d="
M513.000000,233.531342 
	C512.328247,230.011230 511.636536,226.025696 510.992279,222.032486 
	C510.612732,219.680008 510.308472,217.315384 509.897552,214.553131 
	C505.564301,187.056931 496.799408,161.451828 483.994263,137.253860 
	C475.069641,120.388962 464.716125,104.429237 451.765564,90.321823 
	C444.478699,82.383987 437.242493,74.343063 429.356293,67.024414 
	C415.475006,54.142212 400.104889,43.231030 383.604950,33.829205 
	C367.337708,24.559967 350.422516,16.809439 332.395447,11.936606 
	C318.819824,8.267032 304.902496,5.839394 291.098328,3.051771 
	C287.256927,2.276029 283.276886,2.186632 279.180237,1.391181 
	C356.926880,1.000000 434.853760,1.000000 513.000000,1.000000 
	C513.000000,78.354088 513.000000,155.708389 513.000000,233.531342 
z"/>
<path fill="#414952" opacity="1.000000" stroke="none" 
	d="
M256.954102,412.835327 
	C231.127762,412.888763 205.301422,412.964478 179.475067,412.989258 
	C153.979401,413.013733 128.483704,412.986694 102.525276,412.978027 
	C101.980553,409.157776 101.827606,405.341736 101.827469,401.525696 
	C101.825920,359.645172 101.848198,317.764648 102.404282,275.432861 
	C106.413422,274.986481 109.885590,275.090271 113.350388,274.974030 
	C119.229965,274.776855 125.104897,274.440887 131.451447,274.178589 
	C143.615372,274.135895 155.309647,274.077850 167.305252,274.307739 
	C177.056931,274.467896 186.507294,274.340088 196.428864,274.206787 
	C208.593826,274.104889 220.287567,274.008453 232.263550,274.225159 
	C240.719666,274.730286 248.893570,274.922333 257.037476,275.574982 
	C256.989716,321.635529 256.971893,367.235413 256.954102,412.835327 
z"/>
<path fill="#F6F5F5" opacity="1.000000" stroke="none" 
	d="
M354.309937,160.770264 
	C342.772369,163.501495 331.234741,166.232742 319.322388,168.512939 
	C320.122284,160.895538 321.328552,153.734177 322.464294,146.561661 
	C324.294464,135.003693 326.078125,123.438347 327.881439,111.876114 
	C339.478973,108.992371 351.076508,106.108635 362.972473,103.616516 
	C362.007141,111.676575 360.696533,119.337654 359.490692,127.015190 
	C357.724426,138.260696 356.033173,149.517990 354.309937,160.770264 
z"/>
<path fill="#FEFDFD" opacity="1.000000" stroke="none" 
	d="
M228.121155,190.665726 
	C216.647812,193.396133 205.174454,196.126541 193.327637,198.438141 
	C193.134293,196.705429 193.284698,195.386642 193.499023,194.078339 
	C196.341782,176.723846 199.193497,159.370819 202.042969,142.017426 
	C213.498001,139.221252 224.953049,136.425064 236.771942,133.974655 
	C236.571411,137.916946 236.017502,141.515152 235.440842,145.109711 
	C233.004639,160.295639 230.561676,175.480484 228.121155,190.665726 
z"/>
<path fill="#FEFDFD" opacity="1.000000" stroke="none" 
	d="
M165.115295,205.669968 
	C153.642838,208.402374 142.170380,211.134796 130.324341,213.445770 
	C130.131516,211.710739 130.283478,210.392456 130.497421,209.084320 
	C133.335129,191.734360 136.181488,174.385818 139.025696,157.036926 
	C150.479965,154.241959 161.934219,151.446976 173.751038,148.996277 
	C173.582428,152.773773 173.067642,156.209641 172.517319,159.639801 
	C170.055527,174.984070 167.583588,190.326736 165.115295,205.669968 
z"/>
<path fill="#F6F5F5" opacity="1.000000" stroke="none" 
	d="
M291.303345,175.776001 
	C279.767151,178.492554 268.230988,181.209122 256.316742,183.478912 
	C256.576111,179.005707 257.213531,174.979248 257.945374,170.563324 
	C258.530823,167.584045 259.095062,165.005615 259.500519,162.402451 
	C261.349731,150.530167 263.154327,138.650925 264.975006,126.774185 
	C276.552490,123.928902 288.129944,121.083611 299.997314,118.620796 
	C299.014832,126.672676 297.690735,134.333939 296.482361,142.013428 
	C294.712555,153.260788 293.025604,164.521164 291.303345,175.776001 
z"/>
<path fill="#72798A" opacity="1.000000" stroke="none" 
	d="
M130.981781,274.163269 
	C125.104897,274.440887 119.229965,274.776855 113.350388,274.974030 
	C109.885590,275.090271 106.413422,274.986481 102.476685,274.965637 
	C101.893814,274.498718 101.778831,274.047729 101.871063,273.213928 
	C102.331200,272.703949 102.582222,272.573181 102.894547,272.033142 
	C109.957336,254.795837 116.956924,237.964157 124.425697,221.083588 
	C133.634933,220.778168 142.374969,220.521637 151.115021,220.265106 
	C151.475647,220.259384 151.836258,220.253677 152.512634,220.476624 
	C152.828384,220.705276 152.947540,221.097565 152.822403,221.426559 
	C149.185593,230.008301 145.609558,238.234390 142.179474,246.520920 
	C138.377350,255.706238 134.708603,264.946777 130.981781,274.163269 
z"/>
<path fill="#72788A" opacity="1.000000" stroke="none" 
	d="
M165.482971,205.703964 
	C167.583588,190.326736 170.055527,174.984070 172.517319,159.639801 
	C173.067642,156.209641 173.582428,152.773773 174.170471,148.877655 
	C183.224396,146.262726 192.221420,144.110657 201.630707,141.988007 
	C199.193497,159.370819 196.341782,176.723846 193.499023,194.078339 
	C193.284698,195.386642 193.134293,196.705429 192.929688,198.432877 
	C183.887009,201.143600 174.868820,203.440781 165.482971,205.703964 
z"/>
<path fill="#72788A" opacity="1.000000" stroke="none" 
	d="
M138.615295,157.004791 
	C136.181488,174.385818 133.335129,191.734360 130.497421,209.084320 
	C130.283478,210.392456 130.131516,211.710739 129.925949,213.438171 
	C123.196732,215.565948 116.492302,217.279846 108.993019,219.001831 
	C106.114311,219.312057 104.030464,219.614197 101.946609,219.916321 
	C101.689018,219.473602 101.431435,219.030869 101.501472,218.147202 
	C104.908905,199.632538 107.988716,181.558792 111.068520,163.485062 
	C120.113983,161.314255 129.159439,159.143448 138.615295,157.004791 
z"/>
<path fill="#656B79" opacity="1.000000" stroke="none" 
	d="
M354.662109,160.783752 
	C356.033173,149.517990 357.724426,138.260696 359.490692,127.015190 
	C360.696533,119.337654 362.007141,111.676575 363.386169,103.597145 
	C372.448761,101.090050 381.396088,98.993950 390.739563,97.391922 
	C388.058624,116.552650 384.981506,135.219315 381.904419,153.885956 
	C372.941040,156.189713 363.977631,158.493484 354.662109,160.783752 
z"/>
<path fill="#646A79" opacity="1.000000" stroke="none" 
	d="
M291.656006,175.791443 
	C293.025604,164.521164 294.712555,153.260788 296.482361,142.013428 
	C297.690735,134.333939 299.014832,126.672676 300.412537,118.594894 
	C309.384552,116.094246 318.231201,114.001976 327.479614,111.892906 
	C326.078125,123.438347 324.294464,135.003693 322.464294,146.561661 
	C321.328552,153.734177 320.122284,160.895538 318.917664,168.477432 
	C309.927979,171.197601 300.968292,173.502243 291.656006,175.791443 
z"/>
<path fill="#72788A" opacity="1.000000" stroke="none" 
	d="
M257.850983,170.952805 
	C257.213531,174.979248 256.576111,179.005707 255.912125,183.441544 
	C246.874496,186.145599 237.863419,188.440247 228.486755,190.700317 
	C230.561676,175.480484 233.004639,160.295639 235.440842,145.109711 
	C236.017502,141.515152 236.571411,137.916946 237.193176,133.855789 
	C244.219986,131.620148 251.189423,129.849136 258.290131,128.397614 
	C257.944855,130.392807 257.075134,132.063950 257.055664,133.744949 
	C256.930542,144.549179 256.956482,155.355789 257.029846,166.160965 
	C257.040710,167.760040 257.564514,169.355606 257.850983,170.952805 
z"/>
<path fill="#F5F2F3" opacity="1.000000" stroke="none" 
	d="
M382.311584,153.924408 
	C384.981506,135.219315 388.058624,116.552650 391.155243,97.463081 
	C391.500549,97.066078 391.720703,97.232079 391.916626,97.967834 
	C392.138275,98.697517 392.278534,98.997543 392.418793,99.297569 
	C392.418793,99.297569 392.288635,99.343910 392.272278,99.408325 
	C396.109863,115.653229 399.963776,131.833710 404.000275,148.780670 
	C396.912476,150.506592 389.815613,152.234726 382.311584,153.924408 
z"/>
<path fill="#FEFAFB" opacity="1.000000" stroke="none" 
	d="
M110.654800,163.594788 
	C107.988716,181.558792 104.908905,199.632538 101.492226,217.884995 
	C97.245178,201.691391 93.335007,185.319061 89.344086,168.608643 
	C96.752853,166.869934 103.496964,165.287216 110.654800,163.594788 
z"/>
<path fill="#686D7C" opacity="1.000000" stroke="none" 
	d="
M257.945374,170.563324 
	C257.564514,169.355606 257.040710,167.760040 257.029846,166.160965 
	C256.956482,155.355789 256.930542,144.549179 257.055664,133.744949 
	C257.075134,132.063950 257.944855,130.392807 258.681458,128.444000 
	C260.690033,127.725655 262.438629,127.280411 264.581116,126.804688 
	C263.154327,138.650925 261.349731,150.530167 259.500519,162.402451 
	C259.095062,165.005615 258.530823,167.584045 257.945374,170.563324 
z"/>
<path fill="#BB626B" opacity="1.000000" stroke="none" 
	d="
M101.684875,220.248444 
	C104.030464,219.614197 106.114311,219.312057 108.591232,219.020157 
	C110.685486,219.366043 112.384415,219.979004 114.088181,219.992767 
	C126.115250,220.089874 138.143311,220.063858 150.643036,220.171112 
	C142.374969,220.521637 133.634933,220.778168 123.959351,221.034698 
	C116.114273,221.034714 109.204720,221.034714 101.985779,221.034714 
	C101.985779,238.430801 101.985779,255.220413 101.854500,272.112427 
	C101.723221,272.214844 101.459358,272.417938 101.459358,272.417938 
	C101.447281,255.138809 101.435211,237.859695 101.684875,220.248444 
z"/>
<path fill="#BB626B" opacity="1.000000" stroke="none" 
	d="
M102.831352,272.438782 
	C102.582222,272.573181 102.331200,272.703949 101.867065,272.863525 
	C101.655853,272.895966 101.486839,272.684540 101.473099,272.551239 
	C101.459358,272.417938 101.723221,272.214844 102.054672,272.241760 
	C102.386116,272.268707 102.831352,272.438782 102.831352,272.438782 
z"/>
<path fill="#D30F0F" opacity="1.000000" stroke="none" 
	d="
M392.491516,99.046844 
	C392.278534,98.997543 392.138275,98.697517 392.046600,98.141800 
	C392.251526,98.189445 392.407867,98.492783 392.491516,99.046844 
z"/>
<path fill="#23272B" opacity="1.000000" stroke="none" 
	d="
M257.424377,412.896118 
	C256.971893,367.235413 256.989716,321.635529 257.350708,275.535339 
	C258.113068,274.996124 258.532257,274.957214 259.208435,274.972839 
	C259.941315,274.884460 260.417236,274.741516 261.365906,274.552979 
	C270.523163,274.522003 279.207611,274.536682 288.263184,274.740753 
	C299.876251,274.962372 311.118286,275.015594 322.360107,274.985962 
	C323.235626,274.983673 324.109650,274.401398 325.004761,274.067322 
	C325.025177,274.045898 324.971191,274.066193 325.414185,274.238739 
	C337.603302,274.438477 349.349457,274.465698 361.446777,274.689880 
	C367.863373,274.935852 373.930817,275.098694 379.993317,274.988739 
	C383.324402,274.928314 386.647186,274.408386 389.969543,274.072266 
	C389.965424,274.048920 389.986359,274.082031 390.429138,274.251862 
	C397.982574,274.384277 405.093170,274.346863 412.203796,274.309448 
	C412.203796,320.242432 412.203796,366.175385 412.203796,412.956909 
	C360.587372,412.956909 309.240997,412.956909 257.424377,412.896118 
z"/>
<path fill="#FEFEFE" opacity="1.000000" stroke="none" 
	d="
M131.451447,274.178589 
	C134.708603,264.946777 138.377350,255.706238 142.179474,246.520920 
	C145.609558,238.234390 149.185593,230.008301 153.296173,221.392548 
	C165.323990,220.923264 176.752899,220.817017 188.181793,220.710770 
	C188.181793,220.710770 188.558624,220.797943 188.755676,221.102173 
	C189.012466,221.579544 189.072205,221.752670 188.993011,222.261719 
	C181.570679,239.738358 174.287308,256.879089 167.003922,274.019806 
	C155.309647,274.077850 143.615372,274.135895 131.451447,274.178589 
z"/>
<path fill="#F6F6F6" opacity="1.000000" stroke="none" 
	d="
M287.892090,274.551331 
	C279.207611,274.536682 270.523163,274.522003 261.328308,274.131287 
	C268.168518,256.136139 275.519104,238.517090 283.348511,220.925018 
	C295.003235,220.804565 306.179169,220.657104 317.355133,220.509659 
	C317.637360,220.495331 317.919556,220.480988 318.352631,220.817963 
	C311.162964,238.724960 303.822418,256.280640 296.068298,273.911987 
	C293.067169,274.175537 290.479645,274.363434 287.892090,274.551331 
z"/>
<path fill="#676B79" opacity="1.000000" stroke="none" 
	d="
M412.467102,221.025681 
	C412.571991,238.106155 412.676910,255.186615 412.528564,272.199982 
	C412.275269,256.006134 412.275269,239.879425 412.275269,223.752701 
	C411.817078,223.691345 411.358887,223.630005 410.900696,223.568665 
	C403.929260,240.406448 396.957794,257.244232 389.986328,274.082031 
	C389.986359,274.082031 389.965424,274.048920 389.504883,274.042969 
	C381.658966,274.022156 374.272125,274.082123 366.889313,273.936096 
	C365.194550,273.902588 363.513794,273.161133 361.881561,272.386047 
	C362.500732,270.646210 363.058014,269.262939 363.630157,267.885895 
	C370.118713,252.269653 376.609589,236.654373 383.562195,221.028748 
	C393.505432,221.020996 402.986267,221.023346 412.467102,221.025681 
z"/>
<path fill="#646A79" opacity="1.000000" stroke="none" 
	d="
M296.481842,273.836304 
	C303.822418,256.280640 311.162964,238.724960 318.776337,220.808197 
	C319.251862,220.406158 319.402435,220.476883 319.991760,220.792175 
	C329.367859,220.969040 338.253021,221.012955 347.064087,221.414963 
	C339.650360,239.204102 332.310791,256.635162 324.971191,274.066193 
	C324.971191,274.066193 325.025177,274.045898 324.539062,274.041260 
	C314.862610,273.969849 305.672211,273.903076 296.481842,273.836304 
z"/>
<path fill="#72798A" opacity="1.000000" stroke="none" 
	d="
M258.951447,274.918274 
	C258.532257,274.957214 258.113068,274.996124 257.380676,275.074707 
	C248.893570,274.922333 240.719666,274.730286 232.250610,273.854462 
	C238.228577,258.250305 244.526886,243.340408 250.749222,228.398880 
	C251.749374,225.997284 252.410522,223.454498 253.289169,220.836945 
	C253.349960,220.696915 253.391006,220.394348 253.391006,220.394348 
	C253.717590,220.333115 254.046524,220.289841 254.865906,220.431824 
	C255.920517,220.627045 256.487030,220.654953 257.052032,220.751221 
	C257.050507,220.819580 257.008789,220.949814 257.004089,221.421600 
	C256.997192,237.464798 256.921265,253.036942 257.079803,268.606720 
	C257.101288,270.716705 258.298584,272.814728 258.951447,274.918274 
z"/>
<path fill="#646A79" opacity="1.000000" stroke="none" 
	d="
M259.208435,274.972839 
	C258.298584,272.814728 257.101288,270.716705 257.079803,268.606720 
	C256.921265,253.036942 256.997192,237.464798 257.471619,221.406067 
	C265.653229,220.665192 273.362518,220.411652 281.071838,220.158112 
	C281.413239,220.132812 281.754639,220.107529 282.410889,220.305832 
	C282.725769,220.529434 282.869720,220.898026 282.869720,220.898026 
	C275.519104,238.517090 268.168518,256.136139 260.855530,274.176910 
	C260.417236,274.741516 259.941315,274.884460 259.208435,274.972839 
z"/>
<path fill="#F5F5F6" opacity="1.000000" stroke="none" 
	d="
M390.429138,274.251862 
	C396.957794,257.244232 403.929260,240.406448 410.900696,223.568665 
	C411.358887,223.630005 411.817078,223.691345 412.275269,223.752701 
	C412.275269,239.879425 412.275269,256.006134 412.395386,272.588989 
	C412.460785,273.255615 412.406036,273.466125 412.277527,273.993042 
	C405.093170,274.346863 397.982574,274.384277 390.429138,274.251862 
z"/>
<path fill="#B1868A" opacity="1.000000" stroke="none" 
	d="
M347.138214,221.056870 
	C338.253021,221.012955 329.367859,220.969040 319.977539,220.924866 
	C320.704620,220.620514 321.936462,220.052963 323.169189,220.050919 
	C351.894745,220.003326 380.620422,220.013931 409.346069,220.034973 
	C410.160431,220.035568 410.974609,220.267838 412.127991,220.708893 
	C402.986267,221.023346 393.505432,221.020996 383.086182,221.001648 
	C370.477905,221.008713 358.808044,221.032791 347.138214,221.056870 
z"/>
<path fill="#BB626B" opacity="1.000000" stroke="none" 
	d="
M252.898438,220.282776 
	C253.391006,220.394348 253.349960,220.696915 252.796570,220.850861 
	C245.111084,221.007751 237.976685,220.901749 230.847656,221.051117 
	C225.912933,221.154526 220.985565,221.610199 215.635040,221.868393 
	C206.807007,221.548050 198.398849,221.267776 189.867249,220.843414 
	C189.743774,220.699341 189.474609,220.431824 189.474609,220.431824 
	C197.288696,220.283157 205.102539,220.026062 212.916901,220.010117 
	C226.079727,219.983246 239.242859,220.109421 252.898438,220.282776 
z"/>
<path fill="#BB626B" opacity="1.000000" stroke="none" 
	d="
M187.812988,220.496185 
	C176.752899,220.817017 165.323990,220.923264 153.421326,221.063538 
	C152.947540,221.097565 152.828384,220.705276 152.781754,220.505249 
	C164.304810,220.297348 175.874481,220.289490 187.812988,220.496185 
z"/>
<path fill="#B3888C" opacity="1.000000" stroke="none" 
	d="
M283.348511,220.925018 
	C282.869720,220.898026 282.725769,220.529434 282.666199,220.339417 
	C293.923889,220.145493 305.241089,220.141586 316.956726,220.323669 
	C306.179169,220.657104 295.003235,220.804565 283.348511,220.925018 
z"/>
<path fill="#B3888C" opacity="1.000000" stroke="none" 
	d="
M280.596924,220.106812 
	C273.362518,220.411652 265.653229,220.665192 257.476349,220.934265 
	C257.008789,220.949814 257.050507,220.819580 257.046234,220.616577 
	C257.041962,220.413559 257.049408,220.138702 257.049408,220.138702 
	C264.740265,220.110977 272.431122,220.083267 280.596924,220.106812 
z"/>
<path fill="#BB626B" opacity="1.000000" stroke="none" 
	d="
M256.685669,220.092102 
	C257.049408,220.138702 257.041962,220.413559 257.047760,220.548218 
	C256.487030,220.654953 255.920517,220.627045 255.114807,220.434326 
	C255.357727,220.194855 255.839844,220.120178 256.685669,220.092102 
z"/>
<path fill="#BB626B" opacity="1.000000" stroke="none" 
	d="
M189.131958,221.925812 
	C189.072205,221.752670 189.012466,221.579544 188.946960,221.130615 
	C188.941193,220.854813 189.134155,220.543793 189.304382,220.487808 
	C189.474609,220.431824 189.743774,220.699341 189.770630,221.039368 
	C189.634262,221.632950 189.412415,221.815079 189.131958,221.925812 
z"/>
<path fill="#FEFEFE" opacity="1.000000" stroke="none" 
	d="
M216.054901,221.908463 
	C220.985565,221.610199 225.912933,221.154526 230.847656,221.051117 
	C237.976685,220.901749 245.111084,221.007751 252.735779,220.990875 
	C252.410522,223.454498 251.749374,225.997284 250.749222,228.398880 
	C244.526886,243.340408 238.228577,258.250305 231.968384,273.541321 
	C220.287567,274.008453 208.593826,274.104889 196.355637,273.816956 
	C202.062393,258.476837 208.355911,243.538513 214.515762,228.545258 
	C215.367493,226.472137 215.558182,224.127441 216.054901,221.908463 
z"/>
<path fill="#72798A" opacity="1.000000" stroke="none" 
	d="
M215.635025,221.868393 
	C215.558182,224.127441 215.367493,226.472137 214.515762,228.545258 
	C208.355911,243.538513 202.062393,258.476837 195.884430,273.822388 
	C186.507294,274.340088 177.056931,274.467896 167.305252,274.307739 
	C174.287308,256.879089 181.570679,239.738358 188.993011,222.261719 
	C189.412415,221.815079 189.634262,221.632950 189.894104,221.183441 
	C198.398849,221.267776 206.807007,221.548050 215.635025,221.868393 
z"/>
<path fill="#FDFEFE" opacity="1.000000" stroke="none" 
	d="
M102.894547,272.033142 
	C102.831352,272.438782 102.386116,272.268707 102.185944,272.139343 
	C101.985779,255.220413 101.985779,238.430801 101.985779,221.034714 
	C109.204720,221.034714 116.114273,221.034714 123.490166,221.083603 
	C116.956924,237.964157 109.957336,254.795837 102.894547,272.033142 
z"/>
<path fill="#F6F6F6" opacity="1.000000" stroke="none" 
	d="
M347.064087,221.414963 
	C358.808044,221.032791 370.477905,221.008713 382.623779,221.011749 
	C376.609589,236.654373 370.118713,252.269653 363.630157,267.885895 
	C363.058014,269.262939 362.500732,270.646210 361.634949,272.615448 
	C361.254120,273.633850 361.174835,274.063354 361.095581,274.492889 
	C349.349457,274.465698 337.603302,274.438477 325.414185,274.238739 
	C332.310791,256.635162 339.650360,239.204102 347.064087,221.414963 
z"/>
<path fill="#72798A" opacity="1.000000" stroke="none" 
	d="
M296.068298,273.911987 
	C305.672211,273.903076 314.862610,273.969849 324.518677,274.062683 
	C324.109650,274.401398 323.235626,274.983673 322.360107,274.985962 
	C311.118286,275.015594 299.876251,274.962372 288.263184,274.740723 
	C290.479645,274.363434 293.067169,274.175537 296.068298,273.911987 
z"/>
<path fill="#72798A" opacity="1.000000" stroke="none" 
	d="
M361.446777,274.689880 
	C361.174835,274.063354 361.254120,273.633850 361.579956,272.974915 
	C363.513794,273.161133 365.194550,273.902588 366.889313,273.936096 
	C374.272125,274.082123 381.658966,274.022156 389.509033,274.066345 
	C386.647186,274.408386 383.324402,274.928314 379.993317,274.988739 
	C373.930817,275.098694 367.863373,274.935852 361.446777,274.689880 
z"/>
</svg>